{
  "title": "Transparent S03E02 1080p HDTV HEVC 6CH x265",
  "uid": 15891743,
  "size": 478095227,
  "categoryP": "video",
  "categoryS": "hd___tv_shows",
  "magnet": "?xt=urn:btih:43230fe8ee97e682489d0b35f102e2e283eff967&amp;dn=Transparent+S03E02+1080p+HDTV+HEVC+6CH+x265&amp;tr=udp%3A%2F%2Ftracker.leechers-paradise.org%3A6969&amp;tr=udp%3A%2F%2Fzer0day.ch%3A1337&amp;tr=udp%3A%2F%2Fopen.demonii.com%3A1337&amp;tr=udp%3A%2F%2Ftracker.coppersurfer.tk%3A6969&amp;tr=udp%3A%2F%2Fexodus.desync.com%3A6969",
  "seeders": 49,
  "leechers": 6,
  "uploader": "nayhtut",
  "files": 1,
  "time": 1474760559,
  "description": "Source: Transparent S03E02 1080p HDTV x264-ASCENDANCE (1.04 GB)\r\n\r\n\r\nComplete name: Transparent.S03E02.1080p.HDTV.HEVC.6CH.x265.mkv\r\nFormat                                   : Matroska\r\nFormat version                           : Version 4 / Version 2\r\nFile size                                : 456 MiB\r\nDuration                                 : 28mn 47s\r\nOverall bit rate                         : 2 214 Kbps\r\nMovie name                               : transparent.s03e02.1080p.sphd\r\nWriting application                      : Lavf57.25.100\r\nWriting library                          : Lavf57.25.100\r\n\r\nVideo\r\n\r\nID                                       : 1\r\nFormat                                   : V_MPEGH/ISO/HEVC\r\nCodec ID                                 : V_MPEGH/ISO/HEVC\r\nDuration                                 : 28mn 47s\r\nBit rate                                 : 1 786 Kbps\r\nWidth                                    : 1 920 pixels\r\nHeight                                   : 960 pixels\r\nDisplay aspect ratio                     : 2.000\r\nFrame rate                               : 25.000 fps\r\nBits/(Pixel*Frame)                       : 0.039\r\nStream size                              : 368 MiB (81%)\r\nWriting library                          : Lavc57.48.101 libx265\r\nLanguage                                 : English\r\nDefault                                  : Yes\r\nForced                                   : No\r\nDURATION                                 : 00:28:47.451000000\r\n\r\nAudio\r\n\r\nID                                       : 2\r\nFormat                                   : AC-3\r\nFormat/Info                              : Audio Coding 3\r\nMode extension                           : CM (complete main)\r\nFormat settings, Endianness              : Big\r\nCodec ID                                 : A_AC3\r\nDuration                                 : 28mn 47s\r\nBit rate mode                            : Constant\r\nBit rate                                 : 384 Kbps\r\nChannel(s)                               : 6 channels\r\nChannel positions                        : Front: L C R, Side: L R, LFE\r\nSampling rate                            : 48.0 KHz\r\nBit depth                                : 16 bits\r\nCompression mode                         : Lossy\r\nStream size                              : 79.1 MiB (17%)\r\nWriting library                          : Lavc57.24.102 ac3\r\nLanguage                                 : English\r\nDefault                                  : Yes\r\nForced                                   : No\r\nDURATION                                 : 00:28:47.455000000",
  "parsed": {
    "xt": "urn:btih:43230fe8ee97e682489d0b35f102e2e283eff967",
    "dn": "Transparent S03E02 1080p HDTV HEVC 6CH x265",
    "tr": [
      "udp://exodus.desync.com:6969",
      "udp://open.demonii.com:1337",
      "udp://tracker.coppersurfer.tk:6969",
      "udp://tracker.leechers-paradise.org:6969",
      "udp://zer0day.ch:1337"
    ],
    "infoHash": "43230fe8ee97e682489d0b35f102e2e283eff967",
    "infoHashBuffer": {
      "type": "Buffer",
      "data": [
        67,
        35,
        15,
        232,
        238,
        151,
        230,
        130,
        72,
        157,
        11,
        53,
        241,
        2,
        226,
        226,
        131,
        239,
        249,
        103
      ]
    },
    "name": "Transparent S03E02 1080p HDTV HEVC 6CH x265",
    "announce": [
      "udp://exodus.desync.com:6969",
      "udp://open.demonii.com:1337",
      "udp://tracker.coppersurfer.tk:6969",
      "udp://tracker.leechers-paradise.org:6969",
      "udp://zer0day.ch:1337"
    ],
    "urlList": []
  },
  "previous": 28,
  "peers": 24,
  "last_updated": "2016-12-26T22:37:21.188Z"
}